<?xml version="1.0" encoding="UTF-8"?><svg xmlns="http://www.w3.org/2000/svg" viewBox="0 0 355.4 355.4"><defs><style>.uuid-b29838b0-7b57-4e16-a315-14252bcc69ba{fill:#ef4444;}.uuid-a59c872e-676d-4de5-a23b-aa380f5ce436{fill:#9ca3af;}.uuid-d0839873-fa80-4c61-90a8-9e29ecef896c{fill:#f3f4f6;stroke:#111827;stroke-miterlimit:10;stroke-width:7px;}.uuid-f159496a-c559-41ea-917f-115d5c4be71e{fill:#059669;}</style></defs><g id="uuid-77fe3708-df63-41ee-8b5d-e58a7d62f327"><circle class="uuid-a59c872e-676d-4de5-a23b-aa380f5ce436" cx="177.7" cy="177.7" r="177.7"/></g><g id="uuid-32cb8ef3-56f7-469b-9e98-9e091827549a"><path class="uuid-d0839873-fa80-4c61-90a8-9e29ecef896c" d="M264.3,66.67h-43.38v-7.2c0-3.45-2.8-6.25-6.25-6.25h-70.13c-3.45,0-6.25,2.8-6.25,6.25v7.2h-43.38c-3.45,0-6.25,2.8-6.25,6.25v223.01c0,3.45,2.8,6.25,6.25,6.25h169.39c3.45,0,6.25-2.8,6.25-6.25V72.92c0-3.45-2.8-6.25-6.25-6.25Z"/></g><g id="uuid-6975736e-1ad4-43d7-a11c-9209dad4b0ba"><polygon class="uuid-f159496a-c559-41ea-917f-115d5c4be71e" points="167.56 101.54 157.59 91.57 130.66 118.5 119 106.85 109.04 116.82 130.64 138.42 130.66 138.39 130.68 138.42 167.56 101.54"/><polygon class="uuid-b29838b0-7b57-4e16-a315-14252bcc69ba" points="162.69 170.97 152.72 161 139.27 174.46 125.81 161 115.85 170.97 129.3 184.42 115.85 197.88 125.81 207.85 139.27 194.39 152.72 207.85 162.69 197.88 149.23 184.42 162.69 170.97"/><rect class="uuid-a59c872e-676d-4de5-a23b-aa380f5ce436" x="180.61" y="109.1" width="68.01" height="12.33"/><polygon class="uuid-f159496a-c559-41ea-917f-115d5c4be71e" points="167.56 240.4 157.59 230.43 130.66 257.36 119 245.71 109.04 255.68 130.64 277.28 130.66 277.25 130.68 277.28 167.56 240.4"/><rect class="uuid-a59c872e-676d-4de5-a23b-aa380f5ce436" x="180.61" y="247.96" width="68.01" height="12.33"/><rect class="uuid-a59c872e-676d-4de5-a23b-aa380f5ce436" x="180.61" y="178.26" width="68.01" height="12.33"/></g></svg>